<svg id="man-user" xmlns="http://www.w3.org/2000/svg" width="10.648" height="14" viewBox="0 0 10.648 14">
  <path id="Path_949" data-name="Path 949" d="M107.354,6.847c1.557,0,2.819-1.533,2.819-3.423S109.758,0,107.354,0s-2.819,1.533-2.819,3.423S105.8,6.847,107.354,6.847Z" transform="translate(-102.029 0)" fill="#1d1d1d"/>
  <path id="Path_950" data-name="Path 950" d="M41.9,300.431c0-.115,0-.032,0,0Z" transform="translate(-41.895 -288.357)" fill="#1d1d1d"/>
  <path id="Path_951" data-name="Path 951" d="M308.085,301.591c0-.032,0-.219,0,0Z" transform="translate(-297.437 -289.427)" fill="#1d1d1d"/>
  <path id="Path_952" data-name="Path 952" d="M52.549,182.566c-.052-3.294-.482-4.232-3.774-4.826a2.312,2.312,0,0,1-3.087,0c-3.256.588-3.712,1.512-3.772,4.719,0,.262-.007.276-.008.245,0,.057,0,.162,0,.346,0,0,.784,1.58,5.323,1.58s5.323-1.58,5.323-1.58c0-.118,0-.2,0-.256A2.12,2.12,0,0,1,52.549,182.566Z" transform="translate(-41.907 -170.63)" fill="#1d1d1d"/>
</svg>
