<svg id="call-answer" xmlns="http://www.w3.org/2000/svg" width="14.032" height="14" viewBox="0 0 14.032 14">
  <g id="Group_811" data-name="Group 811" transform="translate(0 0)">
    <g id="Group_810" data-name="Group 810">
      <path id="Path_731" data-name="Path 731" d="M13.717,11.467,11.55,9.3a1.13,1.13,0,0,0-1.593.03L8.865,10.421,8.65,10.3A10.864,10.864,0,0,1,6.024,8.4a10.925,10.925,0,0,1-1.9-2.631C4.08,5.7,4.041,5.628,4,5.561l.733-.732.36-.361a1.129,1.129,0,0,0,.029-1.593L2.958.708a1.129,1.129,0,0,0-1.593.03l-.611.614.017.017a3.532,3.532,0,0,0-.5.888,3.68,3.68,0,0,0-.224.9c-.286,2.372.8,4.54,3.74,7.482C7.85,14.7,11.127,14.4,11.268,14.383a3.661,3.661,0,0,0,.9-.227,3.52,3.52,0,0,0,.884-.5l.013.012.619-.606A1.131,1.131,0,0,0,13.717,11.467Z" transform="translate(0 -0.394)" fill="#1d1d1d"/>
    </g>
  </g>
</svg>
