<?xml version="1.0" encoding="utf-8"?>
<!-- Generator: Adobe Illustrator 24.1.2, SVG Export Plug-In . SVG Version: 6.00 Build 0)  -->
<svg version="1.1" id="Layer_1" xmlns="http://www.w3.org/2000/svg" xmlns:xlink="http://www.w3.org/1999/xlink" x="0px" y="0px"
	 viewBox="0 0 480 480" style="enable-background:new 0 0 480 480;" xml:space="preserve">
<style type="text/css">
	.st0{fill:#045C52;}
</style>
<g>
	<path class="st0" d="M88.2,160.8h33v13.9c2.1-0.4,4.3-0.7,6.6-0.7s4.5,0.3,6.6,0.7v-40.3h33c25.5,0,46.2-20.7,46.2-46.2v-6.6h-46.2
		c-23.6,0-43.1,17.8-45.8,40.7c-8.4-8.8-20.3-14.3-33.4-14.3H42v6.6C42,140.1,62.7,160.8,88.2,160.8z"/>
	<path class="st0" d="M292.8,122.1V94.8h33c25.5,0,46.2-20.7,46.2-46.2V42h-46.2c-25.5,0-46.2,20.7-46.2,46.2v33.9
		c2.3,1.5,4.5,3.2,6.6,5.1C288.3,125.3,290.5,123.6,292.8,122.1z"/>
	<path class="st0" d="M101.4,266.4c10.9,0,19.8-8.9,19.8-19.8c0-2.7-0.8-5.3-1.9-7.8c-7.3-2-13.5-6.3-17.9-12.2
		c-4.4,5.9-10.6,10.2-17.9,12.2c-1.1,2.5-1.9,5.1-1.9,7.8C81.6,257.5,90.5,266.4,101.4,266.4z"/>
	<path class="st0" d="M94.8,207c0,10.9-8.9,19.8-19.8,19.8s-19.8-8.9-19.8-19.8c0-10.9,8.9-19.8,19.8-19.8S94.8,196.1,94.8,207z"/>
	<path class="st0" d="M154.2,266.4c10.9,0,19.8-8.9,19.8-19.8c0-2.7-0.8-5.3-1.9-7.8c-7.3-2-13.5-6.3-17.9-12.2
		c-4.9,6.6-12.2,11.3-20.7,12.8c0.5,2.4,0.9,4.8,0.9,7.2C134.4,257.5,143.3,266.4,154.2,266.4z"/>
	<path class="st0" d="M207.8,295.7c-12.3,14.4-19,31.9-20.3,49.8l70,0.1L207.8,295.7z"/>
	<path class="st0" d="M200.4,207c0,10.9-8.9,19.8-19.8,19.8c-10.9,0-19.8-8.9-19.8-19.8c0-10.9,8.9-19.8,19.8-19.8
		C191.5,187.2,200.4,196.1,200.4,207z"/>
	<path class="st0" d="M127.6,266.4h0.3c-0.1-0.1-0.1-0.1-0.2-0.2C127.7,266.3,127.7,266.3,127.6,266.4z"/>
	<path class="st0" d="M213.6,207c0,8.7-3.4,16.5-8.9,22.4c4.7,14.2,13,26.8,24.3,37h82.5c10.6-6.3,22.5-10.6,35.2-12.3
		c-4.1-10.8-10.5-20.8-18.9-29.2l9.3-9.3c9.6,9.6,16.8,20.9,21.6,33.1c8.7-13.7,13.3-29.3,13.3-45.8c0-26.8-12.2-51.5-33.4-67.9
		c-14.6-11.2-35.7-8.6-47.3,6l-5.3,6.6l-5.2-6.7c-11.3-14.3-32.1-17.3-46.3-6.6c-16.1,12.1-27.2,29.2-31.8,48.6
		C209.4,188.8,213.6,197.4,213.6,207z M319.2,141c5.3,0,8.6,2.3,11.4,4.4c17.9,13.9,28.2,34.8,28.2,57.4c0,1.5-0.1,3.1-0.1,4.6
		l-13.2-0.8c0.1-1.2,0.1-2.5,0.1-3.8c0-18.5-8.4-35.7-23.1-47c-2.1-1.6-2.5-1.6-3.3-1.6V141z"/>
	<path class="st0" d="M257.1,358.8l-69.5-0.1c1.4,17.6,8.2,34.9,20.3,49.1L257.1,358.8z"/>
	<path class="st0" d="M147.6,207c0,10.9-8.9,19.8-19.8,19.8c-10.9,0-19.8-8.9-19.8-19.8c0-10.9,8.9-19.8,19.8-19.8
		C138.7,187.2,147.6,196.1,147.6,207z"/>
	<path class="st0" d="M266.9,336.3c0.6-5.9,1.8-11.6,3.4-17.1h-20.5L266.9,336.3z"/>
	<path class="st0" d="M210.4,279.6l26.3,26.4h38.7c4.7-9.9,11.1-18.8,18.8-26.4H210.4z"/>
	<path class="st0" d="M279.5,437.7c18.3-1.4,35.4-8.5,49.3-20.5l-49.3-49.5L279.5,437.7z"/>
	<path class="st0" d="M363.8,266.7c1,5.7,1.6,11.4,1.6,17.3v8.9h-13.2v-8.9c0-5.8-0.6-11.5-1.8-17.1c-39.8,4.2-70.8,37.9-70.8,78.8
		c0,1.2,0.1,2.4,0.2,3.7l67.9,68.1l-4.6,4.7c-0.3,0.3-0.6,0.5-0.9,0.8c5.5,1.2,11.1,1.9,16.7,1.9c43.7,0,79.2-35.5,79.2-79.2
		C438,303.6,405.1,269.3,363.8,266.7z M319.6,304.3l8.7-9.9c8.4,7.4,19.3,11.5,30.5,11.5s22.1-4.1,30.5-11.5l8.7,9.9
		c-10.8,9.6-24.8,14.9-39.2,14.9C344.3,319.2,330.4,313.9,319.6,304.3z M358.8,411.6v-13.2c29.1,0,52.8-23.7,52.8-52.8h13.2
		C424.8,382,395.2,411.6,358.8,411.6z"/>
	<path class="st0" d="M179.6,319.2H68.4v6.6c0,61.9,50.3,112.2,112.2,112.2h43.2c-7.5-4.3-14.5-9.6-20.8-15.9
		C175.3,394.3,167.6,354,179.6,319.2z"/>
	<path class="st0" d="M203,281.5l1.9-1.9H61.8c-3.6,0-6.6,3-6.6,6.6v13.2c0,3.6,3,6.6,6.6,6.6h123.4
		C189.7,297.2,195.6,288.9,203,281.5z"/>
	<path class="st0" d="M266.3,437.7l0.1-69.5l-49.2,49.1C231.1,429.2,248.1,436.3,266.3,437.7z"/>
</g>
</svg>
